<svg width="550" height="105" viewBox="0 0 550 105" fill="none" xmlns="http://www.w3.org/2000/svg">
<g id="form field ">
<g id="field">
<rect x="0.5" y="25.5" width="549" height="59" rx="19.5" fill="white"/>
<rect x="0.5" y="25.5" width="549" height="59" rx="19.5" stroke="black"/>
</g>
<g id="label">
<rect width="66" height="42" transform="translate(461 1.5)" fill="white"/>
<path id="&#216;&#167;&#217;&#132;&#216;&#163;&#216;&#179;&#217;&#133;" d="M477.241 20.914C478.225 20.914 479.071 21.118 479.779 21.526C480.499 21.934 481.045 22.48 481.417 23.164C481.789 23.836 481.975 24.568 481.975 25.36C481.975 26.044 481.843 26.698 481.579 27.322C481.999 28.018 482.713 28.366 483.721 28.366C483.793 28.366 483.841 28.39 483.865 28.438C483.889 28.474 483.901 28.51 483.901 28.546V29.608C483.901 29.644 483.889 29.68 483.865 29.716C483.841 29.764 483.793 29.788 483.721 29.788C482.581 29.788 481.639 29.32 480.895 28.384C480.079 29.32 478.999 29.788 477.655 29.788H475.387C474.847 29.788 474.427 29.968 474.127 30.328C473.827 30.688 473.677 31.198 473.677 31.858V34H472.111V31.714C472.111 29.986 472.777 28.93 474.109 28.546V21.292C475.477 21.04 476.521 20.914 477.241 20.914ZM477.241 22.336C476.701 22.336 476.185 22.39 475.693 22.498V28.366H477.439C478.363 28.366 479.077 28.114 479.581 27.61C480.085 27.094 480.337 26.362 480.337 25.414C480.337 24.502 480.067 23.764 479.527 23.2C478.999 22.624 478.237 22.336 477.241 22.336ZM495.786 29.788C495.054 29.788 494.388 29.65 493.788 29.374C493.2 29.098 492.714 28.684 492.33 28.132C492.03 28.624 491.628 29.026 491.124 29.338C490.62 29.638 490.038 29.788 489.378 29.788H483.726C483.654 29.788 483.606 29.764 483.582 29.716C483.558 29.68 483.546 29.644 483.546 29.608V28.546C483.546 28.51 483.558 28.474 483.582 28.438C483.606 28.39 483.654 28.366 483.726 28.366H485.994V21.094H487.578V28.366H489.09C489.75 28.366 490.29 28.144 490.71 27.7C491.142 27.244 491.358 26.674 491.358 25.99V21.094H492.924V26.242C492.948 26.626 493.098 26.98 493.374 27.304C493.65 27.628 494.004 27.886 494.436 28.078C494.868 28.27 495.312 28.366 495.768 28.366H497.514V20.338H499.08V29.788H495.786ZM509.299 18.772C509.299 20.224 509.053 21.568 508.561 22.804C509.317 23.512 509.905 24.328 510.325 25.252C510.745 26.176 510.955 27.112 510.955 28.06C510.955 28.612 510.895 29.188 510.775 29.788H501.541L500.893 28.366C503.617 26.758 505.543 25.048 506.671 23.236C505.399 22.288 503.857 21.562 502.045 21.058V19.51C504.121 20.146 505.891 20.95 507.355 21.922C507.607 21.034 507.733 19.984 507.733 18.772V15.64H509.299V18.772ZM507.751 24.1C506.731 25.66 505.165 27.082 503.053 28.366H509.317C509.341 28.294 509.353 28.186 509.353 28.042C509.353 27.322 509.233 26.644 508.993 26.008C508.753 25.36 508.339 24.724 507.751 24.1ZM504.979 15.64C505.291 15.64 505.699 15.724 506.203 15.892L505.933 16.81C505.573 16.714 505.297 16.666 505.105 16.666C504.961 16.666 504.829 16.708 504.709 16.792C504.601 16.864 504.547 16.984 504.547 17.152C504.547 17.368 504.631 17.53 504.799 17.638H506.455V18.574H502.909L503.161 17.638H503.827C503.707 17.398 503.647 17.176 503.647 16.972C503.647 16.588 503.761 16.27 503.989 16.018C504.229 15.766 504.559 15.64 504.979 15.64ZM513.578 29.788V16H515.144V29.788H513.578Z" fill="black"/>
</g>
</g>
</svg>
