<svg width="167" height="60" viewBox="0 0 167 60" fill="none" xmlns="http://www.w3.org/2000/svg">
<g id="Google" filter="url(#filter0_d_16_541)">
<rect width="167" height="60" rx="20.9968" fill="white"/>
<g id="Google Logo">
<rect width="35" height="35" transform="translate(20 12.5)" fill="white"/>
<g id="logo googleg 48dp">
<path id="Shape" fill-rule="evenodd" clip-rule="evenodd" d="M54.6963 31.1795C54.6963 29.9719 54.5902 28.8108 54.3933 27.6962H38.6963V34.2835H47.666C47.2796 36.4122 46.1054 38.2158 44.3402 39.4233V43.6962H49.7266C52.8781 40.7315 54.6963 36.3657 54.6963 31.1795Z" fill="#4285F4"/>
<path id="Shape_2" fill-rule="evenodd" clip-rule="evenodd" d="M38.2083 47.6962C42.895 47.6962 46.8243 46.1485 49.6963 43.5087L44.0864 39.172C42.5321 40.2091 40.5437 40.8219 38.2083 40.8219C33.6872 40.8219 29.8605 37.7815 28.4955 33.6962H22.6963V38.1743C25.5525 43.823 31.4228 47.6962 38.2083 47.6962Z" fill="#34A853"/>
<path id="Shape_3" fill-rule="evenodd" clip-rule="evenodd" d="M28.6963 34.0808C28.333 33.012 28.1266 31.8703 28.1266 30.6962C28.1266 29.5221 28.333 28.3804 28.6963 27.3116V22.6962H22.6282C21.398 25.101 20.6963 27.8217 20.6963 30.6962C20.6963 33.5707 21.398 36.2913 22.6282 38.6962L28.6963 34.0808Z" fill="#FBBC05"/>
<path id="Shape_4" fill-rule="evenodd" clip-rule="evenodd" d="M38.1361 20.5705C40.6727 20.5705 42.9502 21.4425 44.7408 23.1552L49.6963 18.1979C46.7041 15.4088 42.7931 13.6962 38.1361 13.6962C31.3822 13.6962 25.5392 17.5693 22.6963 23.2181L28.4685 27.6962C29.8272 23.6109 33.6361 20.5705 38.1361 20.5705Z" fill="#EA4335"/>
</g>
</g>
<path id="Google_2" d="M75.7446 30.452H81.6726V38.852C80.7446 39.156 79.8086 39.38 78.8646 39.524C77.9206 39.668 76.8486 39.74 75.6486 39.74C73.8726 39.74 72.3766 39.388 71.1606 38.684C69.9446 37.964 69.0166 36.948 68.3766 35.636C67.7526 34.308 67.4406 32.74 67.4406 30.932C67.4406 29.14 67.7926 27.588 68.4966 26.276C69.2006 24.964 70.2086 23.948 71.5206 23.228C72.8486 22.492 74.4486 22.124 76.3206 22.124C77.2806 22.124 78.1846 22.212 79.0326 22.388C79.8966 22.564 80.6966 22.812 81.4326 23.132L80.6166 25.004C80.0086 24.732 79.3206 24.5 78.5526 24.308C77.8006 24.116 77.0166 24.02 76.2006 24.02C74.8406 24.02 73.6726 24.3 72.6966 24.86C71.7206 25.42 70.9766 26.22 70.4646 27.26C69.9526 28.284 69.6966 29.508 69.6966 30.932C69.6966 32.292 69.9126 33.5 70.3446 34.556C70.7926 35.596 71.4886 36.412 72.4326 37.004C73.3766 37.58 74.6166 37.868 76.1526 37.868C76.6646 37.868 77.1126 37.852 77.4966 37.82C77.8966 37.772 78.2566 37.716 78.5766 37.652C78.9126 37.588 79.2246 37.524 79.5126 37.46V32.372H75.7446V30.452ZM96.6615 33.044C96.6615 34.116 96.5175 35.068 96.2295 35.9C95.9575 36.716 95.5575 37.412 95.0295 37.988C94.5175 38.564 93.8855 39.004 93.1335 39.308C92.3975 39.596 91.5735 39.74 90.6615 39.74C89.8135 39.74 89.0295 39.596 88.3095 39.308C87.5895 39.004 86.9655 38.564 86.4375 37.988C85.9095 37.412 85.4935 36.716 85.1895 35.9C84.9015 35.068 84.7575 34.116 84.7575 33.044C84.7575 31.62 84.9975 30.42 85.4775 29.444C85.9575 28.452 86.6455 27.7 87.5415 27.188C88.4375 26.66 89.5015 26.396 90.7335 26.396C91.9015 26.396 92.9255 26.66 93.8055 27.188C94.7015 27.7 95.3975 28.452 95.8935 29.444C96.4055 30.42 96.6615 31.62 96.6615 33.044ZM86.9415 33.044C86.9415 34.052 87.0695 34.932 87.3255 35.684C87.5975 36.42 88.0135 36.988 88.5735 37.388C89.1335 37.788 89.8455 37.988 90.7095 37.988C91.5735 37.988 92.2855 37.788 92.8455 37.388C93.4055 36.988 93.8135 36.42 94.0695 35.684C94.3415 34.932 94.4775 34.052 94.4775 33.044C94.4775 32.02 94.3415 31.148 94.0695 30.428C93.7975 29.708 93.3815 29.156 92.8215 28.772C92.2775 28.372 91.5655 28.172 90.6855 28.172C89.3735 28.172 88.4215 28.604 87.8295 29.468C87.2375 30.332 86.9415 31.524 86.9415 33.044ZM111.193 33.044C111.193 34.116 111.049 35.068 110.761 35.9C110.489 36.716 110.089 37.412 109.561 37.988C109.049 38.564 108.417 39.004 107.665 39.308C106.929 39.596 106.105 39.74 105.193 39.74C104.345 39.74 103.561 39.596 102.841 39.308C102.121 39.004 101.497 38.564 100.969 37.988C100.441 37.412 100.025 36.716 99.7208 35.9C99.4328 35.068 99.2888 34.116 99.2888 33.044C99.2888 31.62 99.5288 30.42 100.009 29.444C100.489 28.452 101.177 27.7 102.073 27.188C102.969 26.66 104.033 26.396 105.265 26.396C106.433 26.396 107.457 26.66 108.337 27.188C109.233 27.7 109.929 28.452 110.425 29.444C110.937 30.42 111.193 31.62 111.193 33.044ZM101.473 33.044C101.473 34.052 101.601 34.932 101.857 35.684C102.129 36.42 102.545 36.988 103.105 37.388C103.665 37.788 104.377 37.988 105.241 37.988C106.105 37.988 106.817 37.788 107.377 37.388C107.937 36.988 108.345 36.42 108.601 35.684C108.873 34.932 109.009 34.052 109.009 33.044C109.009 32.02 108.873 31.148 108.601 30.428C108.329 29.708 107.913 29.156 107.353 28.772C106.809 28.372 106.097 28.172 105.217 28.172C103.905 28.172 102.953 28.604 102.361 29.468C101.769 30.332 101.473 31.524 101.473 33.044ZM119.1 26.396C119.948 26.396 120.708 26.556 121.38 26.876C122.068 27.196 122.652 27.684 123.132 28.34H123.252L123.54 26.636H125.22V39.716C125.22 40.932 125.012 41.948 124.596 42.764C124.18 43.596 123.548 44.22 122.7 44.636C121.852 45.052 120.772 45.26 119.46 45.26C118.532 45.26 117.676 45.188 116.892 45.044C116.124 44.916 115.436 44.716 114.828 44.444V42.5C115.244 42.708 115.7 42.884 116.196 43.028C116.692 43.188 117.228 43.308 117.804 43.388C118.38 43.468 118.972 43.508 119.58 43.508C120.684 43.508 121.548 43.18 122.172 42.524C122.812 41.884 123.132 41.004 123.132 39.884V39.38C123.132 39.188 123.14 38.916 123.156 38.564C123.172 38.196 123.188 37.94 123.204 37.796H123.108C122.66 38.452 122.1 38.94 121.428 39.26C120.772 39.58 120.004 39.74 119.124 39.74C117.46 39.74 116.156 39.156 115.212 37.988C114.284 36.82 113.82 35.188 113.82 33.092C113.82 31.716 114.028 30.532 114.444 29.54C114.876 28.532 115.484 27.756 116.268 27.212C117.052 26.668 117.996 26.396 119.1 26.396ZM119.388 28.172C118.668 28.172 118.052 28.364 117.54 28.748C117.044 29.132 116.66 29.692 116.388 30.428C116.132 31.164 116.004 32.06 116.004 33.116C116.004 34.7 116.292 35.916 116.868 36.764C117.46 37.596 118.316 38.012 119.436 38.012C120.092 38.012 120.652 37.932 121.116 37.772C121.58 37.596 121.964 37.332 122.268 36.98C122.572 36.612 122.796 36.148 122.94 35.588C123.084 35.028 123.156 34.364 123.156 33.596V33.092C123.156 31.924 123.02 30.98 122.748 30.26C122.492 29.54 122.084 29.012 121.524 28.676C120.964 28.34 120.252 28.172 119.388 28.172ZM131.418 39.5H129.306V21.26H131.418V39.5ZM140.461 26.396C141.565 26.396 142.509 26.636 143.293 27.116C144.093 27.596 144.701 28.276 145.117 29.156C145.549 30.02 145.765 31.036 145.765 32.204V33.476H136.957C136.989 34.932 137.357 36.044 138.061 36.812C138.781 37.564 139.781 37.94 141.061 37.94C141.877 37.94 142.597 37.868 143.221 37.724C143.861 37.564 144.517 37.34 145.189 37.052V38.9C144.533 39.188 143.885 39.396 143.245 39.524C142.605 39.668 141.845 39.74 140.965 39.74C139.749 39.74 138.669 39.492 137.725 38.996C136.797 38.5 136.069 37.764 135.541 36.788C135.029 35.796 134.773 34.588 134.773 33.164C134.773 31.756 135.005 30.548 135.469 29.54C135.949 28.532 136.613 27.756 137.461 27.212C138.325 26.668 139.325 26.396 140.461 26.396ZM140.437 28.124C139.429 28.124 138.629 28.452 138.037 29.108C137.461 29.748 137.117 30.644 137.005 31.796H143.557C143.557 31.06 143.445 30.42 143.221 29.876C142.997 29.332 142.653 28.908 142.189 28.604C141.741 28.284 141.157 28.124 140.437 28.124Z" fill="black"/>
</g>
<defs>
<filter id="filter0_d_16_541" x="-70" y="-70" width="307" height="200" filterUnits="userSpaceOnUse" color-interpolation-filters="sRGB">
<feFlood flood-opacity="0" result="BackgroundImageFix"/>
<feColorMatrix in="SourceAlpha" type="matrix" values="0 0 0 0 0 0 0 0 0 0 0 0 0 0 0 0 0 0 127 0" result="hardAlpha"/>
<feOffset/>
<feGaussianBlur stdDeviation="35"/>
<feColorMatrix type="matrix" values="0 0 0 0 0 0 0 0 0 0 0 0 0 0 0 0 0 0 0.2 0"/>
<feBlend mode="normal" in2="BackgroundImageFix" result="effect1_dropShadow_16_541"/>
<feBlend mode="normal" in="SourceGraphic" in2="effect1_dropShadow_16_541" result="shape"/>
</filter>
</defs>
</svg>
