<svg width="550" height="60" viewBox="0 0 550 60" fill="none" xmlns="http://www.w3.org/2000/svg">
<g id="login btn" filter="url(#filter0_d_18_262)">
<rect width="550" height="60" rx="20.9968" fill="#1EE3CF"/>
<path id="&#216;&#170;&#216;&#179;&#216;&#172;&#217;&#138;&#217;&#132; &#216;&#167;&#217;&#132;&#216;&#175;&#216;&#174;&#217;&#136;&#217;&#132;" d="M202.735 44.156C200.703 44.156 199.215 43.628 198.271 42.572C197.327 41.516 196.855 40.188 196.855 38.588V33.908H200.215V38.06C200.215 40.22 201.391 41.3 203.743 41.3H206.551V21.5H209.911V44.156H202.735ZM225.681 37.004C225.777 37.004 225.841 37.036 225.873 37.1C225.905 37.164 225.921 37.212 225.921 37.244V39.644C225.921 39.692 225.905 39.74 225.873 39.788C225.841 39.852 225.777 39.884 225.681 39.884H224.169C224.025 41.692 223.433 43.004 222.393 43.82C221.369 44.636 219.921 45.196 218.049 45.5L216.705 42.5C217.697 42.372 218.481 42.188 219.057 41.948C219.649 41.724 220.097 41.38 220.401 40.916C220.705 40.468 220.857 39.852 220.857 39.068V30.788C220.297 30.676 219.785 30.62 219.321 30.62C217.369 30.62 216.393 31.716 216.393 33.908C216.393 34.868 216.641 35.628 217.137 36.188C217.649 36.732 218.377 37.004 219.321 37.004H220.377L219.081 39.884H218.745C217.641 39.884 216.641 39.636 215.745 39.14C214.865 38.644 214.169 37.94 213.657 37.028C213.161 36.116 212.913 35.06 212.913 33.86C212.913 32.708 213.185 31.668 213.729 30.74C214.273 29.796 215.033 29.06 216.009 28.532C217.001 28.004 218.145 27.74 219.441 27.74C220.545 27.74 222.137 27.9 224.217 28.22V37.004H225.681ZM231.448 27.74C232.968 27.74 234.288 28.116 235.408 28.868C236.544 29.604 237.36 30.612 237.856 31.892L239.152 35.204C239.552 36.26 240.464 36.86 241.888 37.004L240.592 39.884C240.048 39.884 239.432 39.724 238.744 39.404C238.056 39.084 237.472 38.668 236.992 38.156C235.952 38.716 234.776 39.148 233.464 39.452C232.168 39.74 230.912 39.884 229.696 39.884H225.688C225.591 39.884 225.527 39.852 225.495 39.788C225.463 39.74 225.447 39.692 225.447 39.644V37.244C225.447 37.196 225.463 37.148 225.495 37.1C225.527 37.036 225.591 37.004 225.688 37.004H229.696C230.912 37.004 232 36.948 232.96 36.836C233.936 36.708 234.904 36.46 235.864 36.092L234.76 33.428C234.44 32.644 233.952 32.044 233.296 31.628C232.64 31.196 231.856 30.98 230.944 30.98C229.936 30.98 229.016 31.18 228.184 31.58L226.96 28.844C228.352 28.108 229.848 27.74 231.448 27.74ZM229.888 25.94V22.916H233.344V25.94H229.888ZM253.985 35.54C254.177 36.052 254.473 36.428 254.873 36.668C255.273 36.892 255.833 37.004 256.553 37.004C256.649 37.004 256.713 37.036 256.745 37.1C256.777 37.148 256.793 37.196 256.793 37.244V39.644C256.793 39.692 256.777 39.74 256.745 39.788C256.713 39.852 256.649 39.884 256.553 39.884C255.193 39.884 254.113 39.756 253.313 39.5C252.529 39.228 251.929 38.804 251.513 38.228C250.041 39.332 248.481 39.884 246.833 39.884H243.905L242.609 37.004H246.329C248.089 37.004 249.505 36.684 250.577 36.044L247.385 27.74H250.985L253.985 35.54ZM256.555 39.884C256.459 39.884 256.395 39.852 256.363 39.788C256.331 39.74 256.315 39.692 256.315 39.644V37.244C256.315 37.196 256.331 37.148 256.363 37.1C256.395 37.036 256.459 37.004 256.555 37.004H258.955V21.5H262.291V39.884H256.555ZM266.376 39.884V21.5H269.736V39.884H266.376ZM294.325 37.004C294.421 37.004 294.485 37.036 294.517 37.1C294.549 37.148 294.565 37.196 294.565 37.244V39.644C294.565 39.692 294.549 39.74 294.517 39.788C294.485 39.852 294.421 39.884 294.325 39.884H291.661V44.156H284.485C282.453 44.156 280.965 43.628 280.021 42.572C279.077 41.516 278.605 40.188 278.605 38.588V33.908H281.965V38.06C281.965 40.22 283.141 41.3 285.493 41.3H288.301V21.5H291.661V37.004H294.325ZM302.184 34.772C302.184 35.172 302.144 35.588 302.064 36.02C302.416 36.404 302.816 36.668 303.264 36.812C303.712 36.94 304.4 37.004 305.328 37.004C305.424 37.004 305.488 37.036 305.52 37.1C305.552 37.148 305.568 37.196 305.568 37.244V39.644C305.568 39.692 305.552 39.74 305.52 39.788C305.488 39.852 305.424 39.884 305.328 39.884C304.32 39.868 303.512 39.732 302.904 39.476C302.296 39.204 301.72 38.732 301.176 38.06C300.76 38.636 300.232 39.084 299.592 39.404C298.968 39.724 298.272 39.884 297.504 39.884H294.336C294.24 39.884 294.176 39.852 294.144 39.788C294.112 39.74 294.096 39.692 294.096 39.644V37.244C294.096 37.196 294.112 37.148 294.144 37.1C294.176 37.036 294.24 37.004 294.336 37.004H296.496C297.136 37.004 297.68 36.756 298.128 36.26C298.592 35.748 298.824 35.076 298.824 34.244V27.74H302.184V34.772ZM295.56 45.02V41.996H299.016V45.02H295.56ZM300.36 45.02V41.996H303.816V45.02H300.36ZM311.328 27.74C312.848 27.74 314.168 28.116 315.288 28.868C316.424 29.604 317.24 30.612 317.736 31.892L319.032 35.204C319.24 35.764 319.608 36.204 320.136 36.524C320.68 36.844 321.216 37.004 321.744 37.004C321.84 37.004 321.904 37.036 321.936 37.1C321.968 37.148 321.984 37.196 321.984 37.244V39.644C321.984 39.692 321.968 39.74 321.936 39.788C321.904 39.852 321.84 39.884 321.744 39.884C319.52 39.884 317.888 39.308 316.848 38.156C315.808 38.716 314.64 39.148 313.344 39.452C312.048 39.74 310.792 39.884 309.576 39.884H305.328C305.232 39.884 305.168 39.852 305.136 39.788C305.104 39.74 305.088 39.692 305.088 39.644V37.244C305.088 37.196 305.104 37.148 305.136 37.1C305.168 37.036 305.232 37.004 305.328 37.004H309.576C310.792 37.004 311.88 36.948 312.84 36.836C313.816 36.708 314.784 36.46 315.744 36.092L314.64 33.428C314.32 32.644 313.832 32.044 313.176 31.628C312.52 31.196 311.736 30.98 310.824 30.98C309.816 30.98 308.896 31.18 308.064 31.58L306.84 28.844C308.232 28.108 309.728 27.74 311.328 27.74ZM309.864 45.02V41.996H313.32V45.02H309.864ZM342.83 34.772C342.83 35.076 342.782 35.484 342.686 35.996C343.054 36.396 343.454 36.668 343.886 36.812C344.334 36.94 345.03 37.004 345.974 37.004C346.07 37.004 346.134 37.036 346.166 37.1C346.198 37.148 346.214 37.196 346.214 37.244V39.644C346.214 39.692 346.198 39.74 346.166 39.788C346.134 39.852 346.07 39.884 345.974 39.884C344.95 39.868 344.126 39.724 343.502 39.452C342.894 39.18 342.31 38.692 341.75 37.988C341.302 38.58 340.726 39.044 340.022 39.38C339.334 39.716 338.574 39.884 337.742 39.884C336.654 39.884 335.782 39.748 335.126 39.476C334.486 39.204 333.942 38.804 333.494 38.276C332.598 39.348 331.43 39.884 329.99 39.884H321.734C321.638 39.884 321.574 39.852 321.542 39.788C321.51 39.74 321.494 39.692 321.494 39.644V37.244C321.494 37.196 321.51 37.148 321.542 37.1C321.574 37.036 321.638 37.004 321.734 37.004H324.134V27.98H327.494V37.004H328.982C329.622 37.004 330.166 36.756 330.614 36.26C331.078 35.748 331.31 35.076 331.31 34.244V27.98H334.67V34.796C334.67 35.516 334.934 36.068 335.462 36.452C336.006 36.82 336.606 37.004 337.262 37.004C337.902 37.004 338.43 36.78 338.846 36.332C339.262 35.868 339.47 35.172 339.47 34.244V26.972H342.83V34.772ZM345.969 39.884C345.873 39.884 345.809 39.852 345.777 39.788C345.745 39.74 345.729 39.692 345.729 39.644V37.244C345.729 37.196 345.745 37.148 345.777 37.1C345.809 37.036 345.873 37.004 345.969 37.004H350.049V27.98H353.385V39.884H345.969ZM347.529 25.94V22.916H350.985V25.94H347.529ZM352.329 25.94V22.916H355.785V25.94H352.329Z" fill="#0A0E3F"/>
</g>
<defs>
<filter id="filter0_d_18_262" x="-71.4756" y="-32.9887" width="692.951" height="202.951" filterUnits="userSpaceOnUse" color-interpolation-filters="sRGB">
<feFlood flood-opacity="0" result="BackgroundImageFix"/>
<feColorMatrix in="SourceAlpha" type="matrix" values="0 0 0 0 0 0 0 0 0 0 0 0 0 0 0 0 0 0 127 0" result="hardAlpha"/>
<feOffset dy="38.4869"/>
<feGaussianBlur stdDeviation="35.7378"/>
<feColorMatrix type="matrix" values="0 0 0 0 0 0 0 0 0 0 0 0 0 0 0 0 0 0 0.07 0"/>
<feBlend mode="normal" in2="BackgroundImageFix" result="effect1_dropShadow_18_262"/>
<feBlend mode="normal" in="SourceGraphic" in2="effect1_dropShadow_18_262" result="shape"/>
</filter>
</defs>
</svg>
