<svg width="167" height="60" viewBox="0 0 167 60" fill="none" xmlns="http://www.w3.org/2000/svg">
<g id="Apple" filter="url(#filter0_d_16_542)">
<rect width="167" height="60" rx="20.9968" fill="black"/>
<g id="Apple Logo" clip-path="url(#clip0_16_542)">
<rect width="35" height="35" transform="translate(31.5 12.5)" fill="black"/>
<path id="path4" d="M63.7369 40.5048C63.2076 41.7276 62.581 42.8531 61.8551 43.888C60.8657 45.2987 60.0555 46.2753 59.4311 46.8175C58.4633 47.7076 57.4263 48.1635 56.3158 48.1894C55.5186 48.1894 54.5572 47.9626 53.4381 47.5024C52.3153 47.0444 51.2835 46.8175 50.3401 46.8175C49.3506 46.8175 48.2894 47.0444 47.1543 47.5024C46.0175 47.9626 45.1017 48.2024 44.4015 48.2261C43.3366 48.2715 42.2752 47.8027 41.2157 46.8175C40.5395 46.2277 39.6937 45.2166 38.6804 43.7843C37.5933 42.2547 36.6995 40.481 35.9993 38.4588C35.2494 36.2746 34.8735 34.1596 34.8735 32.1119C34.8735 29.7663 35.3804 27.7433 36.3956 26.048C37.1934 24.6863 38.2548 23.6121 39.5833 22.8236C40.9117 22.035 42.3471 21.6332 43.8929 21.6075C44.7387 21.6075 45.8479 21.8691 47.2262 22.3833C48.6007 22.8992 49.4832 23.1608 49.8702 23.1608C50.1594 23.1608 51.1398 22.8549 52.8019 22.245C54.3736 21.6794 55.7001 21.4452 56.7868 21.5375C59.7314 21.7751 61.9437 22.9359 63.415 25.0272C60.7814 26.6229 59.4787 28.8579 59.5046 31.725C59.5284 33.9582 60.3385 35.8166 61.9308 37.2922C62.6523 37.977 63.4582 38.5064 64.3548 38.8823C64.1603 39.4461 63.9551 39.9862 63.7369 40.5048ZM56.9834 13.9293C56.9834 15.6797 56.3439 17.3141 55.0692 18.8268C53.531 20.6251 51.6704 21.6643 49.6528 21.5003C49.6271 21.2903 49.6122 21.0693 49.6122 20.8371C49.6122 19.1567 50.3437 17.3584 51.6428 15.888C52.2914 15.1435 53.1162 14.5245 54.1165 14.0306C55.1146 13.5442 56.0587 13.2752 56.9466 13.2291C56.9726 13.4631 56.9834 13.6971 56.9834 13.9293V13.9293Z" fill="white"/>
</g>
<path id="Apple_2" d="M89.3984 38.5L87.6992 33.6602H80.9727L79.2734 38.5H77.0586L83.293 21.5898H85.3789L91.6133 38.5H89.3984ZM84.3008 24.1562L81.5938 31.8672H87.0781L84.3711 24.1562H84.3008ZM99.1484 26.1016C102.254 26.1016 104.363 28.5859 104.363 32.4062C104.363 36.2266 102.266 38.7109 99.1953 38.7109C97.4492 38.7109 96.043 37.8555 95.3164 36.5195H95.2695V42.5664H93.2305V26.3125H95.1641V28.375H95.2109C95.9609 27.0039 97.3789 26.1016 99.1484 26.1016ZM98.75 36.918C100.918 36.918 102.277 35.1719 102.277 32.4062C102.277 29.6523 100.918 27.8945 98.75 27.8945C96.6641 27.8945 95.2578 29.6992 95.2578 32.4062C95.2578 35.125 96.6641 36.918 98.75 36.918ZM112.344 26.1016C115.449 26.1016 117.559 28.5859 117.559 32.4062C117.559 36.2266 115.461 38.7109 112.391 38.7109C110.645 38.7109 109.238 37.8555 108.512 36.5195H108.465V42.5664H106.426V26.3125H108.359V28.375H108.406C109.156 27.0039 110.574 26.1016 112.344 26.1016ZM111.945 36.918C114.113 36.918 115.473 35.1719 115.473 32.4062C115.473 29.6523 114.113 27.8945 111.945 27.8945C109.859 27.8945 108.453 29.6992 108.453 32.4062C108.453 35.125 109.859 36.918 111.945 36.918ZM119.727 38.5V21.5898H121.766V38.5H119.727ZM129.406 27.8711C127.496 27.8711 126.16 29.3359 126.031 31.3633H132.652C132.605 29.3242 131.328 27.8711 129.406 27.8711ZM132.605 35.0078H134.609C134.258 37.1406 132.195 38.7109 129.535 38.7109C126.043 38.7109 123.922 36.2852 123.922 32.4531C123.922 28.668 126.078 26.1016 129.441 26.1016C132.734 26.1016 134.762 28.4922 134.762 32.1836V32.957H126.02V33.0742C126.02 35.4062 127.391 36.9414 129.582 36.9414C131.129 36.9414 132.266 36.1562 132.605 35.0078Z" fill="white"/>
</g>
<defs>
<filter id="filter0_d_16_542" x="-71.4756" y="-32.9887" width="309.951" height="202.951" filterUnits="userSpaceOnUse" color-interpolation-filters="sRGB">
<feFlood flood-opacity="0" result="BackgroundImageFix"/>
<feColorMatrix in="SourceAlpha" type="matrix" values="0 0 0 0 0 0 0 0 0 0 0 0 0 0 0 0 0 0 127 0" result="hardAlpha"/>
<feOffset dy="38.4869"/>
<feGaussianBlur stdDeviation="35.7378"/>
<feColorMatrix type="matrix" values="0 0 0 0 0 0 0 0 0 0 0 0 0 0 0 0 0 0 0.07 0"/>
<feBlend mode="normal" in2="BackgroundImageFix" result="effect1_dropShadow_16_542"/>
<feBlend mode="normal" in="SourceGraphic" in2="effect1_dropShadow_16_542" result="shape"/>
</filter>
<clipPath id="clip0_16_542">
<rect width="35" height="35" fill="white" transform="translate(31.5 12.5)"/>
</clipPath>
</defs>
</svg>
