<svg width="167" height="60" viewBox="0 0 167 60" fill="none" xmlns="http://www.w3.org/2000/svg">
<g id="Facebook" filter="url(#filter0_d_16_540)">
<rect width="167" height="60" rx="20.9968" fill="#1877F2"/>
<g id="Facebook Logo" clip-path="url(#clip0_16_540)">
<rect width="35" height="35" transform="translate(13 12.5)" fill="#1877F2"/>
<path id="path14" d="M48 29.6069C48 19.8829 40.165 12 30.5 12C20.835 12 13 19.8829 13 29.6069C13 38.3951 19.3995 45.6791 27.7656 47V34.6965H23.3223V29.6069H27.7656V25.7279C27.7656 21.3152 30.3783 18.8777 34.3756 18.8777C36.2903 18.8777 38.293 19.2216 38.293 19.2216V23.5546H36.0863C33.9123 23.5546 33.2344 24.9118 33.2344 26.3042V29.6069H38.0879L37.312 34.6965H33.2344V47C41.6005 45.6791 48 38.3951 48 29.6069Z" fill="white"/>
</g>
<path id="Facebook_2" d="M62.3477 22.3594V38H60.2744V22.3594H62.3477ZM68.9004 29.3955V31.0928H61.8965V29.3955H68.9004ZM69.9639 22.3594V24.0566H61.8965V22.3594H69.9639ZM78.6221 36.0127V30.0293C78.6221 29.571 78.529 29.1735 78.3428 28.8369C78.1637 28.4932 77.8916 28.2282 77.5264 28.042C77.1611 27.8558 76.71 27.7627 76.1729 27.7627C75.6715 27.7627 75.2311 27.8486 74.8516 28.0205C74.4792 28.1924 74.1855 28.418 73.9707 28.6973C73.763 28.9766 73.6592 29.2773 73.6592 29.5996H71.6719C71.6719 29.1842 71.7793 28.7725 71.9941 28.3643C72.209 27.9561 72.5169 27.5872 72.918 27.2578C73.3262 26.9212 73.8132 26.6562 74.3789 26.4629C74.9518 26.2624 75.5892 26.1621 76.291 26.1621C77.1361 26.1621 77.8809 26.3053 78.5254 26.5918C79.1771 26.8783 79.6855 27.3115 80.0508 27.8916C80.4232 28.4645 80.6094 29.1842 80.6094 30.0508V35.4648C80.6094 35.8516 80.6416 36.2633 80.7061 36.7002C80.7777 37.137 80.8815 37.513 81.0176 37.8281V38H78.9443C78.8441 37.7708 78.7653 37.4665 78.708 37.0869C78.6507 36.7002 78.6221 36.3421 78.6221 36.0127ZM78.9658 30.9531L78.9873 32.3496H76.9785C76.4128 32.3496 75.9079 32.3962 75.4639 32.4893C75.0199 32.5752 74.6475 32.7077 74.3467 32.8867C74.0459 33.0658 73.8167 33.2913 73.6592 33.5635C73.5016 33.8285 73.4229 34.14 73.4229 34.498C73.4229 34.8633 73.5052 35.1963 73.6699 35.4971C73.8346 35.7979 74.0817 36.0378 74.4111 36.2168C74.7477 36.3887 75.1595 36.4746 75.6465 36.4746C76.2552 36.4746 76.7923 36.3457 77.2578 36.0879C77.7233 35.8301 78.0921 35.515 78.3643 35.1426C78.6436 34.7702 78.7939 34.4085 78.8154 34.0576L79.6641 35.0137C79.6139 35.3145 79.4779 35.6475 79.2559 36.0127C79.0339 36.3779 78.7367 36.7288 78.3643 37.0654C77.999 37.3949 77.5622 37.6706 77.0537 37.8926C76.5524 38.1074 75.9867 38.2148 75.3564 38.2148C74.5687 38.2148 73.8776 38.0609 73.2832 37.7529C72.696 37.445 72.2376 37.0332 71.9082 36.5176C71.5859 35.9948 71.4248 35.4111 71.4248 34.7666C71.4248 34.1436 71.5465 33.5957 71.79 33.123C72.0335 32.6432 72.3844 32.2458 72.8428 31.9307C73.3011 31.6084 73.8525 31.3649 74.4971 31.2002C75.1416 31.0355 75.8613 30.9531 76.6562 30.9531H78.9658ZM88.3867 36.582C88.8594 36.582 89.2962 36.4854 89.6973 36.292C90.0983 36.0986 90.4277 35.8337 90.6855 35.4971C90.9434 35.1533 91.0902 34.763 91.126 34.3262H93.0166C92.9808 35.0137 92.748 35.6546 92.3184 36.249C91.8958 36.8363 91.3408 37.3125 90.6533 37.6777C89.9658 38.0358 89.2103 38.2148 88.3867 38.2148C87.513 38.2148 86.7503 38.0609 86.0986 37.7529C85.4541 37.445 84.917 37.0225 84.4873 36.4854C84.0648 35.9482 83.7461 35.3324 83.5312 34.6377C83.3236 33.9359 83.2197 33.1947 83.2197 32.4141V31.9629C83.2197 31.1823 83.3236 30.4447 83.5312 29.75C83.7461 29.0482 84.0648 28.4287 84.4873 27.8916C84.917 27.3545 85.4541 26.932 86.0986 26.624C86.7503 26.3161 87.513 26.1621 88.3867 26.1621C89.2962 26.1621 90.0911 26.3483 90.7715 26.7207C91.4518 27.0859 91.9854 27.5872 92.3721 28.2246C92.766 28.8548 92.9808 29.571 93.0166 30.373H91.126C91.0902 29.8932 90.9541 29.46 90.7178 29.0732C90.4886 28.6865 90.1735 28.3786 89.7725 28.1494C89.3786 27.9131 88.9167 27.7949 88.3867 27.7949C87.778 27.7949 87.266 27.9167 86.8506 28.1602C86.4424 28.3965 86.1165 28.7188 85.873 29.127C85.6367 29.528 85.4648 29.9756 85.3574 30.4697C85.2572 30.9567 85.207 31.4544 85.207 31.9629V32.4141C85.207 32.9225 85.2572 33.4238 85.3574 33.918C85.4577 34.4121 85.626 34.8597 85.8623 35.2607C86.1058 35.6618 86.4316 35.984 86.8398 36.2275C87.2552 36.4639 87.7708 36.582 88.3867 36.582ZM100.074 38.2148C99.265 38.2148 98.5309 38.0788 97.8721 37.8066C97.2204 37.5273 96.6582 37.137 96.1855 36.6357C95.7201 36.1344 95.362 35.54 95.1113 34.8525C94.8607 34.165 94.7354 33.4131 94.7354 32.5967V32.1455C94.7354 31.2002 94.875 30.3587 95.1543 29.6211C95.4336 28.8763 95.8132 28.2461 96.293 27.7305C96.7728 27.2148 97.3171 26.8245 97.9258 26.5596C98.5345 26.2946 99.1647 26.1621 99.8164 26.1621C100.647 26.1621 101.363 26.3053 101.965 26.5918C102.574 26.8783 103.071 27.2793 103.458 27.7949C103.845 28.3034 104.131 28.9049 104.317 29.5996C104.504 30.2871 104.597 31.0391 104.597 31.8555V32.7471H95.917V31.125H102.609V30.9746C102.581 30.459 102.473 29.9577 102.287 29.4707C102.108 28.9837 101.822 28.5827 101.428 28.2676C101.034 27.9525 100.497 27.7949 99.8164 27.7949C99.3652 27.7949 98.9499 27.8916 98.5703 28.085C98.1908 28.2712 97.8649 28.5505 97.5928 28.9229C97.3206 29.2952 97.1094 29.75 96.959 30.2871C96.8086 30.8242 96.7334 31.4437 96.7334 32.1455V32.5967C96.7334 33.1481 96.8086 33.6673 96.959 34.1543C97.1165 34.6341 97.3421 35.0566 97.6357 35.4219C97.9365 35.7871 98.2982 36.0736 98.7207 36.2812C99.1504 36.4889 99.6374 36.5928 100.182 36.5928C100.883 36.5928 101.478 36.4495 101.965 36.1631C102.452 35.8766 102.878 35.4935 103.243 35.0137L104.446 35.9697C104.196 36.3493 103.877 36.7109 103.49 37.0547C103.104 37.3984 102.627 37.6777 102.062 37.8926C101.503 38.1074 100.84 38.2148 100.074 38.2148ZM106.906 21.5H108.904V35.7441L108.732 38H106.906V21.5ZM116.757 32.0918V32.3174C116.757 33.1624 116.657 33.9466 116.456 34.6699C116.256 35.3861 115.962 36.0091 115.575 36.5391C115.188 37.069 114.716 37.4808 114.157 37.7744C113.599 38.068 112.958 38.2148 112.234 38.2148C111.497 38.2148 110.849 38.0895 110.29 37.8389C109.739 37.5811 109.273 37.2122 108.894 36.7324C108.514 36.2526 108.21 35.6725 107.98 34.9922C107.758 34.3118 107.604 33.5456 107.519 32.6934V31.7051C107.604 30.8457 107.758 30.0758 107.98 29.3955C108.21 28.7152 108.514 28.1351 108.894 27.6553C109.273 27.1683 109.739 26.7995 110.29 26.5488C110.841 26.291 111.482 26.1621 112.213 26.1621C112.943 26.1621 113.591 26.3053 114.157 26.5918C114.723 26.8711 115.196 27.2721 115.575 27.7949C115.962 28.3177 116.256 28.9443 116.456 29.6748C116.657 30.3981 116.757 31.2038 116.757 32.0918ZM114.759 32.3174V32.0918C114.759 31.5117 114.705 30.9674 114.598 30.459C114.49 29.9434 114.318 29.4922 114.082 29.1055C113.846 28.7116 113.534 28.4036 113.147 28.1816C112.761 27.9525 112.285 27.8379 111.719 27.8379C111.217 27.8379 110.781 27.9238 110.408 28.0957C110.043 28.2676 109.731 28.5003 109.474 28.7939C109.216 29.0804 109.005 29.4098 108.84 29.7822C108.682 30.1475 108.564 30.527 108.485 30.9209V33.5098C108.6 34.0111 108.786 34.4945 109.044 34.96C109.309 35.4183 109.66 35.7943 110.097 36.0879C110.541 36.3815 111.089 36.5283 111.74 36.5283C112.277 36.5283 112.736 36.4209 113.115 36.2061C113.502 35.984 113.813 35.6797 114.05 35.293C114.293 34.9062 114.472 34.4587 114.587 33.9502C114.701 33.4417 114.759 32.8975 114.759 32.3174ZM118.744 32.3174V32.0703C118.744 31.2324 118.866 30.4554 119.109 29.7393C119.353 29.016 119.704 28.3893 120.162 27.8594C120.62 27.3223 121.175 26.9069 121.827 26.6133C122.479 26.3125 123.209 26.1621 124.019 26.1621C124.835 26.1621 125.569 26.3125 126.221 26.6133C126.88 26.9069 127.438 27.3223 127.896 27.8594C128.362 28.3893 128.716 29.016 128.96 29.7393C129.203 30.4554 129.325 31.2324 129.325 32.0703V32.3174C129.325 33.1553 129.203 33.9323 128.96 34.6484C128.716 35.3646 128.362 35.9912 127.896 36.5283C127.438 37.0583 126.883 37.4736 126.231 37.7744C125.587 38.068 124.856 38.2148 124.04 38.2148C123.224 38.2148 122.49 38.068 121.838 37.7744C121.186 37.4736 120.628 37.0583 120.162 36.5283C119.704 35.9912 119.353 35.3646 119.109 34.6484C118.866 33.9323 118.744 33.1553 118.744 32.3174ZM120.731 32.0703V32.3174C120.731 32.8975 120.799 33.4453 120.936 33.9609C121.072 34.4694 121.276 34.9206 121.548 35.3145C121.827 35.7083 122.174 36.0199 122.59 36.249C123.005 36.471 123.489 36.582 124.04 36.582C124.584 36.582 125.061 36.471 125.469 36.249C125.884 36.0199 126.228 35.7083 126.5 35.3145C126.772 34.9206 126.976 34.4694 127.112 33.9609C127.256 33.4453 127.327 32.8975 127.327 32.3174V32.0703C127.327 31.4974 127.256 30.9567 127.112 30.4482C126.976 29.9326 126.769 29.4779 126.489 29.084C126.217 28.6829 125.873 28.3678 125.458 28.1387C125.05 27.9095 124.57 27.7949 124.019 27.7949C123.474 27.7949 122.994 27.9095 122.579 28.1387C122.171 28.3678 121.827 28.6829 121.548 29.084C121.276 29.4779 121.072 29.9326 120.936 30.4482C120.799 30.9567 120.731 31.4974 120.731 32.0703ZM131.291 32.3174V32.0703C131.291 31.2324 131.413 30.4554 131.656 29.7393C131.9 29.016 132.251 28.3893 132.709 27.8594C133.167 27.3223 133.722 26.9069 134.374 26.6133C135.026 26.3125 135.756 26.1621 136.565 26.1621C137.382 26.1621 138.116 26.3125 138.768 26.6133C139.426 26.9069 139.985 27.3223 140.443 27.8594C140.909 28.3893 141.263 29.016 141.507 29.7393C141.75 30.4554 141.872 31.2324 141.872 32.0703V32.3174C141.872 33.1553 141.75 33.9323 141.507 34.6484C141.263 35.3646 140.909 35.9912 140.443 36.5283C139.985 37.0583 139.43 37.4736 138.778 37.7744C138.134 38.068 137.403 38.2148 136.587 38.2148C135.771 38.2148 135.036 38.068 134.385 37.7744C133.733 37.4736 133.174 37.0583 132.709 36.5283C132.251 35.9912 131.9 35.3646 131.656 34.6484C131.413 33.9323 131.291 33.1553 131.291 32.3174ZM133.278 32.0703V32.3174C133.278 32.8975 133.346 33.4453 133.482 33.9609C133.618 34.4694 133.823 34.9206 134.095 35.3145C134.374 35.7083 134.721 36.0199 135.137 36.249C135.552 36.471 136.035 36.582 136.587 36.582C137.131 36.582 137.607 36.471 138.016 36.249C138.431 36.0199 138.775 35.7083 139.047 35.3145C139.319 34.9206 139.523 34.4694 139.659 33.9609C139.802 33.4453 139.874 32.8975 139.874 32.3174V32.0703C139.874 31.4974 139.802 30.9567 139.659 30.4482C139.523 29.9326 139.315 29.4779 139.036 29.084C138.764 28.6829 138.42 28.3678 138.005 28.1387C137.597 27.9095 137.117 27.7949 136.565 27.7949C136.021 27.7949 135.541 27.9095 135.126 28.1387C134.718 28.3678 134.374 28.6829 134.095 29.084C133.823 29.4779 133.618 29.9326 133.482 30.4482C133.346 30.9567 133.278 31.4974 133.278 32.0703ZM146.362 21.5V38H144.364V21.5H146.362ZM153.463 26.377L148.393 31.8018L145.557 34.7451L145.396 32.6289L147.426 30.2012L151.035 26.377H153.463ZM151.647 38L147.501 32.457L148.532 30.6846L153.989 38H151.647Z" fill="white"/>
</g>
<defs>
<filter id="filter0_d_16_540" x="-71.4756" y="-32.9887" width="309.951" height="202.951" filterUnits="userSpaceOnUse" color-interpolation-filters="sRGB">
<feFlood flood-opacity="0" result="BackgroundImageFix"/>
<feColorMatrix in="SourceAlpha" type="matrix" values="0 0 0 0 0 0 0 0 0 0 0 0 0 0 0 0 0 0 127 0" result="hardAlpha"/>
<feOffset dy="38.4869"/>
<feGaussianBlur stdDeviation="35.7378"/>
<feColorMatrix type="matrix" values="0 0 0 0 0 0 0 0 0 0 0 0 0 0 0 0 0 0 0.07 0"/>
<feBlend mode="normal" in2="BackgroundImageFix" result="effect1_dropShadow_16_540"/>
<feBlend mode="normal" in="SourceGraphic" in2="effect1_dropShadow_16_540" result="shape"/>
</filter>
<clipPath id="clip0_16_540">
<rect width="35" height="35" fill="white" transform="translate(13 12.5)"/>
</clipPath>
</defs>
</svg>
